# xmcd
#
# Track frame offsets: 
#        300
#        23998
#        40391
#        60381
#        86961
#        113362
#        132953
#        154930
#        189884
#        211761
#        232305
#        252153
#        273077
#
# Disc length: 4000 seconds
#
# Revision: 1
# Processed by: cddbd v1.5.2PL0 Copyright (c) Steve Scherf et al.
# Submitted via: ExactAudioCopy v1.0b1
#
DISCID=ad0f9c0d
DTITLE=Blues Company - Two Nights Only
DYEAR=1900
DGENRE=Blues Rock
TTITLE0=Blues Is My Middlename
TTITLE1=I've Got The Blues
TTITLE2=Invitation To The Blues
TTITLE3=Rollin' And Tumblin'
TTITLE4=747
TTITLE5=Good Man Bad
TTITLE6=Bo Diddley's Groove
TTITLE7=I Just Can't Keep From Cryin'
TTITLE8=Don't Do That - She Might Get Mad
TTITLE9=Dinner At Woolfies
TTITLE10=Walkin Blues
TTITLE11=The Blues Ist Allright
TTITLE12=(They Called Him) Muddy Waters
EXTD=
EXTT0=
EXTT1=
EXTT2=
EXTT3=
EXTT4=
EXTT5=
EXTT6=
EXTT7=
EXTT8=
EXTT9=
EXTT10=
EXTT11=
EXTT12=
PLAYORDER=
